# Blender v2.76 (sub 0) OBJ File: 'icosohedron.blend'
# www.blender.org
o Solid
v 0.303598 -0.794629 -0.525731
v -0.303598 0.794629 -0.525731
v 0.303598 -0.794629 0.525731
v -0.303598 0.794629 0.525731
v 0.982263 -0.187509 0.000000
v -0.606995 -0.794706 0.000000
v 0.606995 0.794706 0.000000
v -0.982263 0.187509 0.000000
v 0.491108 0.187634 -0.850651
v 0.491108 0.187634 0.850651
v -0.491108 -0.187634 -0.850651
v -0.491108 -0.187634 0.850651
vn 0.745400 -0.333300 -0.577400
vn -0.333300 -0.745400 -0.577400
vn 0.745400 -0.333300 0.577400
vn -0.333300 -0.745400 0.577400
vn 0.333300 0.745400 -0.577400
vn -0.745400 0.333300 -0.577400
vn 0.333300 0.745400 0.577400
vn -0.745400 0.333300 0.577400
vn 0.127400 -0.333300 -0.934200
vn -0.127400 0.333300 -0.934200
vn 0.127400 -0.333300 0.934200
vn -0.127400 0.333300 0.934200
vn 0.666700 -0.745300 0.000000
vn 0.000100 -1.000000 0.000000
vn -0.000100 1.000000 0.000000
vn -0.666700 0.745300 0.000000
vn 0.872600 0.333400 -0.356800
vn 0.872600 0.333400 0.356800
vn -0.872600 -0.333400 -0.356800
vn -0.872600 -0.333400 0.356800
s off
f 1//1 9//1 5//1
f 1//2 6//2 11//2
f 3//3 5//3 10//3
f 3//4 12//4 6//4
f 2//5 7//5 9//5
f 2//6 11//6 8//6
f 4//7 10//7 7//7
f 4//8 8//8 12//8
f 1//9 11//9 9//9
f 2//10 9//10 11//10
f 3//11 10//11 12//11
f 4//12 12//12 10//12
f 5//13 3//13 1//13
f 6//14 1//14 3//14
f 7//15 2//15 4//15
f 8//16 4//16 2//16
f 9//17 7//17 5//17
f 10//18 5//18 7//18
f 11//19 6//19 8//19
f 12//20 8//20 6//20
